PathFileType	4	(X/Y/Z)	21_1_25_p0_0-805_filt_butterworth.trc
DataRate	CameraRate	NumFrames	NumMarkers	Units	OrigDataRate	OrigDataStartFrame	OrigNumFrames
60.0	60.0	6	27	m	60.0	100	805
Frame#	Time	RHip			RKnee			RAnkle			RBigToe			RSmallToe			RHeel			LHip			LKnee			LAnkle			LBigToe			LSmallToe			LHeel			Neck			Head			Nose			RShoulder			RElbow			RWrist			RThumb			RIndex			RPinky			LShoulder			LElbow			LWrist			LThumb			LIndex			LPinky			
		X1	Y1	Z1	X2	Y2	Z2	X3	Y3	Z3	X4	Y4	Z4	X5	Y5	Z5	X6	Y6	Z6	X7	Y7	Z7	X8	Y8	Z8	X9	Y9	Z9	X10	Y10	Z10	X11	Y11	Z11	X12	Y12	Z12	X13	Y13	Z13	X14	Y14	Z14	X15	Y15	Z15	X16	Y16	Z16	X17	Y17	Z17	X18	Y18	Z18	X19	Y19	Z19	X20	Y20	Z20	X21	Y21	Z21	X22	Y22	Z22	X23	Y23	Z23	X24	Y24	Z24	X25	Y25	Z25	X26	Y26	Z26	X27	Y27	Z27	
100	1.6666666666666667	0.28125444291694474	0.9210634795218274	0.5754987178419916	0.2870418659875242	0.48130038970754785	0.5803496998614064	0.2749034339627535	0.01765659610012671	0.6762386023635196	0.28961932050357875	0.022987329521496444	0.4662995655864924	0.3517211390573775	0.028529727242916914	0.4783870803611532	0.2570667129087813	-0.029441388698130004	0.7164489966747698	0.08819956318321943	0.9135080282114996	0.6126946080706288	0.08174676150704775	0.46221593368363184	0.6176007406632198	0.08482691266188565	0.056537427706017884	0.6275275678636519	0.08417361285368602	0.03729336879291893	0.45003868766712124	0.02778308236948987	0.026309476924882107	0.48957119129009014	0.10568775936718804	-0.009459889502384383	0.6948778990758517	0.20853068302614144	1.4886315426495091	0.6679633821787245	0.24020991849927237	1.7516488934457348	0.608805018690327	0.2238301506363985	1.6074038893649856	0.5546393343438609	0.34974358265218736	1.3867429317370532	0.6428771687518431	0.3635480416562694	1.126222807735949	0.5871933201448907	0.216686028637162	0.9991330736947369	0.4256775319139926	0.15888202595445977	0.9396075370257487	0.3985062402726547	0.16113370012573652	0.8718267508575492	0.44832823655979437	0.1481067592941708	0.8906023372293963	0.43773737094814946	0.07036267767867983	1.414610326941969	0.6256768057492816	0.035237411638337414	1.1480641947864267	0.5628763996391397	0.12267258061796374	0.9866934875152068	0.443002694559555	0.20214692061697448	0.8996014354432296	0.43197331815188156	0.2051039932020479	0.8739606528989564	0.4298616060996524	0.1784572890285373	0.8984729737855013	0.3881086550727502	
101	1.6833333333333331	0.2812487930243222	0.9210826230363196	0.5754635807777545	0.28682016989631903	0.48169636984298264	0.5800455734330742	0.274447757983024	0.017756300186391544	0.6761327013341956	0.2896191956593813	0.02249526741031805	0.4676205135241032	0.3517342650251918	0.028995684734314582	0.47756754192382167	0.2568622885769734	-0.02847729097094153	0.7163537307024064	0.08800498631556083	0.9138726257523092	0.6115832518097041	0.08178483710810133	0.46220470746244885	0.6175602383186779	0.08479369861432541	0.05658255489935314	0.6275689931595955	0.0820817641212359	0.035705427464824156	0.4520529673310415	0.02619496858216978	0.024178151301305004	0.4922482634536673	0.1056422917237391	-0.00947167259929032	0.6947241271214751	0.20852987009094348	1.488626704794974	0.6679504253248696	0.24093826989004657	1.751808056062664	0.6068114397930044	0.2232970929433586	1.6074789356462633	0.5544151376968541	0.3497949289873302	1.386677596430441	0.6430919266068582	0.3635206861047292	1.1258580120857586	0.5871484798235342	0.21663042667667734	0.9995898187588947	0.42533955222521347	0.1588311916476713	0.9403459919296133	0.3982856338235243	0.1608161529386259	0.8714336818977348	0.44864115470428617	0.14900201743329905	0.8887501443638101	0.4387039768636307	0.07039793469157993	1.4145498862368986	0.6258231557542824	0.035175216022457934	1.1491516195955687	0.5623708125192437	0.12266434356951436	0.9867062803549128	0.44298135746765493	0.20212347577165635	0.89986453583781	0.43200539931728504	0.20426874693702374	0.8750062168047256	0.4298040323840045	0.1776010811923841	0.8984911584555813	0.38760612867471733	
102	1.7	0.28124309512923945	0.9210976659008407	0.5754403126495701	0.28667369876852566	0.48215030708538553	0.5800163094994794	0.27388286256139455	0.01784119404094066	0.6760643147852011	0.28960056785059957	0.02255452046022839	0.46796069218117703	0.3517374623132748	0.029472052931873577	0.47678627627822884	0.2566555951033766	-0.02737403301291131	0.7165019048646707	0.08780809192058334	0.9141320231619232	0.6105508150046007	0.08180801635609798	0.46211366723809627	0.6175173874963672	0.08475677738806171	0.05655295110435261	0.6276236493262854	0.08007564357638626	0.03368637473589164	0.45461965670208304	0.025022632084156157	0.022286513713447073	0.4948476125403969	0.10559751170760535	-0.00952867706278112	0.6943818074128425	0.20853215918476825	1.4886200988159508	0.6679276119300459	0.24121382241816405	1.7518663665414191	0.6060157054586902	0.22299275664434243	1.6074190453682444	0.5543234601574554	0.34971158299769023	1.3867141803585135	0.6427892459889486	0.36346821594312895	1.1252219624671669	0.5870960213499524	0.21661048125049964	0.9996637599413398	0.4252511461507579	0.15856375539623555	0.9405176057875022	0.39800369273135616	0.16005279104626996	0.8710842622399532	0.4492649068726046	0.1500278103339548	0.8861993004424894	0.43988730583449426	0.07045847966422861	1.4145288388786859	0.6260879284909822	0.034967454065990194	1.1506435178769137	0.5611895834074956	0.12265165301992129	0.9867254425803985	0.442952140951439	0.20207778729751763	0.9004737418489482	0.432097017921438	0.20339097094319372	0.875917563170253	0.4297883645321555	0.17707676673742095	0.8980415285450707	0.38710860148655774	
103	1.7166666666666666	0.28123088474913144	0.921107709009182	0.5754272886830328	0.286577872389106	0.48262329849405744	0.5801805033988486	0.27332358694806086	0.0179677833698266	0.675965883146563	0.2897319284720145	0.023227835043295543	0.46713710741370995	0.35159848526310455	0.02960038112174792	0.47674191926118314	0.2565067235861292	-0.026390950589967724	0.716839720241642	0.08761934257727218	0.9142738169617614	0.609619994857101	0.08182934224356586	0.46208491263322493	0.6174833561788904	0.08471918861268196	0.056458517789658956	0.6276935557199748	0.07834139614811446	0.031491096731378954	0.45743424995174703	0.024307871060477895	0.02084795175204056	0.4968197872627519	0.10555275603800542	-0.00941567366482339	0.6938601832225229	0.2085359289250343	1.488613352388234	0.6678942755758919	0.24092110288663854	1.7517970011163722	0.6067282149598068	0.22291884984439397	1.6073307973196538	0.5543437672402153	0.3494290960726394	1.386904123035715	0.6417165936670881	0.3634009917076243	1.1244570999569792	0.5870562205693081	0.21662822229342882	0.9995178083754946	0.42542079714377423	0.15803976250967516	0.9405532142617015	0.39718362123002765	0.1588501312888734	0.8713291850224577	0.4496016051121078	0.15074305756642006	0.8836203781864057	0.44101578916768625	0.07049842931344615	1.414642630282756	0.626254817576546	0.03461020147106039	1.1523228699060157	0.559423027138751	0.12263283908791262	0.9867527585408238	0.4429222346438555	0.20200724939210196	0.9013764477333045	0.432235657836142	0.20257809720781783	0.8765921107061989	0.42983378248903625	0.17706650601096857	0.8973313657671033	0.3866772840069294	
104	1.7333333333333334	0.28120890988647224	0.9211122222469432	0.5754211061354335	0.2864964582989966	0.48305941985745	0.5803984050797321	0.2729325952917137	0.018205985628317586	0.6757511237342126	0.29001047678747793	0.024366563968615813	0.4655017691282616	0.3511831012678328	0.0290874853604215	0.4780198791354014	0.256484826157421	-0.025848438910671664	0.7172164087293267	0.0874508715256739	0.9142725733178945	0.6088079317931524	0.08185587403681664	0.46216580259876494	0.6174622473800186	0.08468149612114466	0.056423150757503426	0.6277931338783683	0.07687406004774985	0.029351000951856103	0.4601918904128282	0.023861396319035645	0.019939201630206724	0.49795814612232003	0.10549634756947884	-0.008944378489410723	0.6931851269850392	0.20853726906772577	1.4886079781145753	0.667852778571359	0.24017622032112979	1.751626333093977	0.6086451372755772	0.22298981524064687	1.6072745711126022	0.5544380882849325	0.348948068842913	1.3872374781091203	0.6399327863821268	0.3633434205102388	1.1237836069616427	0.5870541343279386	0.2166726475273869	0.9993617245718073	0.4257435218105369	0.15723073484672284	0.9408345408270598	0.39549646312190134	0.1574494074041479	0.8726417100443318	0.44877700126238856	0.15081840944280955	0.8817815533924974	0.44185897535743196	0.07043912959344942	1.414929900981269	0.6259507010857599	0.03415471812494916	1.1537168596644276	0.557328908243607	0.12261156860163117	0.98678495931312	0.4428925569924475	0.20191688007801611	0.902482967855799	0.43237881220154745	0.20194217770265843	0.8769494980582546	0.42990571209165446	0.1775465440079082	0.8966753414288141	0.38640900786016663	
105	1.75	0.28118186138419776	0.9211116537404929	0.5754173271868848	0.2864102154495446	0.4834159726515323	0.5805542743594735	0.27278834676956676	0.01856210856677311	0.6754151710883449	0.290304763771001	0.0255953196381482	0.4637526868623948	0.35044340311150435	0.027868870849270505	0.4807284715328146	0.2566348446337301	-0.02594471059539208	0.7175526196340312	0.08730462826735096	0.9141141927214005	0.608125784860312	0.08188952647956514	0.4623031142380963	0.6174532239771012	0.08464396889064274	0.056580683357434984	0.6279347475784087	0.0758249020425417	0.027698692477518883	0.4623302905121426	0.023508971325083353	0.019522593327103724	0.4984165481801783	0.1054388000963888	-0.008178316245673757	0.6923576160975136	0.20853165853055888	1.4886052001992065	0.6678060299729172	0.23922307513237434	1.7514099151017417	0.6111246529255568	0.22307689890887772	1.6072566346383212	0.5545232570519382	0.34832579825063026	1.3876622572674686	0.6377094302692111	0.36331535726469194	1.1233869322869923	0.5871081902501157	0.2167115677662227	0.9992811621420912	0.42608055211260987	0.15618289948449837	0.941486033012391	0.39286279766836557	0.15619747270149092	0.8752860372787312	0.44598492846641974	0.1500833950216885	0.881277145407257	0.4421749526429104	0.07022671637371689	1.4153495349733305	0.6249267610694487	0.033671710255589966	1.1544417511626717	0.5551885389397735	0.12259402117560139	0.9868159159031097	0.4428609857877883	0.2018203090032077	0.9037003463813177	0.43248442790505487	0.20158667712735673	0.8769162668775055	0.4298827019442897	0.17834127244943998	0.8962537347251268	0.3863716174613602	
